<svg xmlns="http://www.w3.org/2000/svg" xmlns:xlink="http://www.w3.org/1999/xlink" viewBox="0 0 970 970"><defs><linearGradient id="a" x1="892.02" y1="567.1" x2="1207.35" y2="567.1" gradientUnits="userSpaceOnUse"><stop offset="0" stop-color="#fff" stop-opacity="0.5"/><stop offset="0.41" stop-color="#a5a5a5"/></linearGradient></defs><title>profil_poly</title><circle cx="485" cy="485" r="484.5" fill="#3b556d" stroke="#000" stroke-miterlimit="10"/><polygon points="718.98 312.21 733.63 459.58 725.35 485.06 787.92 583.68 750 609.53 752.59 644 737.94 660.38 728.46 696.57 737.94 763.79 600.05 784.48 567.3 861.18 432.86 906.85 313.93 831.01 292.05 660.38 401.84 216.55 718.98 312.21" fill="#fc9" stroke="#000" stroke-miterlimit="10"/><polygon points="315.65 716.39 189.83 516.46 153.64 353.57 261.36 175.18 469.06 107.96 677.61 157.08 779.31 216.55 765.52 299.28 718.98 329.44 657.79 329.44 635.38 408.73 564.72 458.71 547.48 581.95 463.89 493.19 392.36 511.29 389.77 632.8 409.59 716.39 315.65 716.39" fill="#630" stroke="#000" stroke-miterlimit="10"/><path d="M1201.16,630.78c-.32-8.52,6.54-91.78,13.08-94.35s5.88,2.11,5.88,2.11-6.69,87.91-12.26,94.32S1201.16,630.78,1201.16,630.78Z" transform="translate(-482 -69)" fill="#003"/><path d="M1207.23,577.73a3.29,3.29,0,0,1-3.42,2.41L1004,565.2l-111.19-9.41a.87.87,0,0,1-.8-.86h0a.87.87,0,0,1,.93-.87l311.31,19.51a3.29,3.29,0,0,1,3,4.16Z" transform="translate(-482 -69)" fill="url(#a)"/><g opacity="0.4"><path d="M948.47,177" transform="translate(-482 -69)" fill="#630" stroke="#000" stroke-miterlimit="10"/><polygon points="657.79 329.44 765.52 299.28 718.98 329.44 657.79 329.44"/><polygon points="657.79 329.44 779.31 216.55 765.52 299.28 657.79 329.44" fill="gray"/><polygon points="779.74 216.98 466.9 246.28 261.79 177.34 466.9 108.39 678.04 156.65 779.74 216.98" fill="gray"/><polygon points="154.07 353.14 466.9 246.28 261.79 177.34 154.07 353.14" fill="#4d4d4d"/><polygon points="316.09 715.96 268.69 466.9 154.07 353.14 190.26 516.89 316.09 715.96"/><polygon points="410.02 715.96 389.34 632.37 316.09 715.96 410.02 715.96" fill="#333"/><polygon points="658.22 329.01 564.29 458.28 634.95 408.3 658.22 329.01" fill="#333"/><polygon points="779.74 216.12 466.9 246.28 658.22 329.01 779.74 216.12" fill="#666"/><polygon points="564.29 458.28 466.9 246.28 658.22 329.01 564.29 458.28" fill="#4d4d4d"/><polygon points="466.9 246.28 391.93 510.85 268.69 466.9 154.07 353.14 466.9 246.28" fill="#333"/><polygon points="391.93 510.85 466.9 246.28 564.29 458.28 464.32 493.62 391.93 510.85" fill="#4d4d4d"/><polygon points="505.68 478.97 564.29 458.28 547.91 582.38 505.68 478.97" fill="#333"/><polygon points="268.69 466.9 391.93 510.85 389.34 632.37 316.09 715.96 268.69 466.9" fill="#333"/><polygon points="547.91 582.38 505.68 478.97 466.04 493.62 547.91 582.38" fill="#1a1a1a"/></g><g opacity="0.25"><polygon points="295.4 683.22 316.09 715.96 432.43 906.42 313.5 830.58 295.4 683.22" fill="#333"/><polygon points="599.62 784.05 506.55 762.5 432.43 906.42 567.73 860.75 599.62 784.05" fill="#333"/><polygon points="738.37 762.5 685.8 736.65 506.55 762.5 599.62 784.05 738.37 762.5"/><polygon points="719.41 329.01 725.44 378.14 683.22 367.8 658.22 411.98 564.29 458.28 636.68 407.44 657.36 329.01 719.41 329.01" fill="gray"/><polygon points="733.2 458.28 691.83 485 725.44 485 733.2 458.28" fill="#666"/><polygon points="787.49 582.38 733.2 596.17 753.02 643.57 750.44 608.24 787.49 582.38" fill="#b3b3b3"/><polygon points="410.02 715.96 404.85 585.83 391.93 510.85 389.34 632.37 410.02 715.96" fill="#b3b3b3"/></g></svg>